<svg xmlns="http://www.w3.org/2000/svg" viewBox="0 0 99 76">
  <path data-name="Forma 1" d="M1631,1193h38.8v-57.02H1631V1193Zm20.22-2.86a1.835,1.835,0,1,1,1.87-1.84A1.855,1.855,0,0,1,1651.22,1190.14Zm-14.61-48.67h27.58v42.07h-27.58v-42.07Zm13.58-19.11h62.17v24.72h5.48V1117h-73.13v16.54h5.48v-11.18Zm22.11,36.51h28.81v5.37H1672.3v-5.37Zm31.64-9.71v42.95H1730v-42.95h-26.06Zm13.61,1.78a0.62,0.62,0,1,1-.63.62A0.619,0.619,0,0,1,1717.55,1150.94Zm-3.75,2.06h7.5v0.59h-7.5V1153Zm3.5,37.25a1.471,1.471,0,1,1,1.51-1.47A1.492,1.492,0,0,1,1717.3,1190.25Zm8.52-5.05c-6.77.03-14.34,0.06-17.7,0.03V1155.7h17.7v29.5Zm-45.59-18.76h-7.93v3.25h19.31v1.42H1672.3v2.94h28.81v-7.61h-20.88Z" transform="translate(-1631 -1117)"/>
</svg>
