<svg xmlns="http://www.w3.org/2000/svg" viewBox="0 0 57.562 97">
  <path data-name="Forma 1" d="M227.418,1201.83a2.166,2.166,0,0,0,2.144,2.17h31.679a2.165,2.165,0,0,0,2.143-2.17v-4.96H227.418v4.96Zm-0.718-59.85,0.011-15.85a6.831,6.831,0,0,1,1.94-4.82,7.711,7.711,0,0,1,5.487-2.21,7.463,7.463,0,0,1,4.437,1.42,6.572,6.572,0,0,1,2.593,4.68c0,0.04.847,8.31,1.607,15.7A17.978,17.978,0,1,0,226.7,1141.98Zm42.3,20.68a4.858,4.858,0,0,0-3.333-4.64c-5.948-1.96-17.951-5.87-19.784-6.24a8.731,8.731,0,0,0-1.661-.16,5.284,5.284,0,0,0-3.472,1.08h-0.011v-0.01c-0.01-.08-2.775-27.11-2.775-27.16a3.59,3.59,0,0,0-3.837-3.19c-2.079,0-4.223,1.32-4.212,3.78l-0.021,43.8a1.021,1.021,0,0,1-.89,1.02h-0.021a0.338,0.338,0,0,1-.14.02h-0.032c-1.457-.05-4.747-0.09-7.951-4.78-0.429-.62-0.815-1.18-1.169-1.7a4.864,4.864,0,0,0-4.008-2.31,4.338,4.338,0,0,0-4.147,5.37c0.772,4.7,5.851,15.62,15.861,25.87h35.966l3.633-6.2a14.361,14.361,0,0,0,1.983-7.28Z" transform="translate(-211.438 -1107)"/>
</svg>
