<svg xmlns="http://www.w3.org/2000/svg" width="20" height="35" viewBox="0 0 20 35">
  <metadata><?xpacket begin="﻿" id="W5M0MpCehiHzreSzNTczkc9d"?>
<x:xmpmeta xmlns:x="adobe:ns:meta/" x:xmptk="Adobe XMP Core 5.6-c138 79.159824, 2016/09/14-01:09:01        ">
   <rdf:RDF xmlns:rdf="http://www.w3.org/1999/02/22-rdf-syntax-ns#">
      <rdf:Description rdf:about=""/>
   </rdf:RDF>
</x:xmpmeta>
                                                                                                    
                                                                                                    
                                                                                                    
                                                                                                    
                                                                                                    
                                                                                                    
                                                                                                    
                                                                                                    
                                                                                                    
                                                                                                    
                                                                                                    
                                                                                                    
                                                                                                    
                                                                                                    
                                                                                                    
                                                                                                    
                                                                                                    
                                                                                                    
                                                                                                    
                                                                                                    
                           
<?xpacket end="w"?></metadata>
<defs>
    <style>
      .cls-1 {
        fill: #18cfab;
        fill-rule: evenodd;
      }
    </style>
  </defs>
  <path id="Forma_1" data-name="Forma 1" class="cls-1" d="M404.945,2025.66h-9.89a0.95,0.95,0,0,0,0,1.9h9.891A0.95,0.95,0,0,0,404.945,2025.66Zm-0.209,2.73h-9.472a0.94,0.94,0,0,0,0,1.88h9.471A0.94,0.94,0,0,0,404.736,2028.39Zm-1.237,2.73h-7a0.928,0.928,0,0,0-.925.94,0.937,0.937,0,0,0,.93.94H403.5A0.94,0.94,0,0,0,403.5,2031.12ZM400.162,1998h-0.324c-5.433,0-9.838,4.91-9.838,10.97,0,2.82.745,4.62,2.53,7.31,1.07,1.61,2.549,2.83,2.778,8.47h9.383c0.23-5.64,1.71-6.85,2.778-8.46,1.785-2.7,2.531-4.51,2.531-7.33C410,2002.91,405.6,1998,400.162,1998Zm3.459,12.69-3.323,3.46v8.09a0.3,0.3,0,1,1-.6,0v-8.09l-3.324-3.46a0.311,0.311,0,0,1,.007-0.44,0.3,0.3,0,0,1,.439,0l3.175,3.3,3.174-3.3a0.305,0.305,0,0,1,.44,0A0.312,0.312,0,0,1,403.621,2010.69Z" transform="translate(-390 -1998)"/>
</svg>
