<svg xmlns="http://www.w3.org/2000/svg" width="25.875" height="23.88" viewBox="0 0 25.875 23.88">
  <metadata><?xpacket begin="﻿" id="W5M0MpCehiHzreSzNTczkc9d"?>
<x:xmpmeta xmlns:x="adobe:ns:meta/" x:xmptk="Adobe XMP Core 5.6-c138 79.159824, 2016/09/14-01:09:01        ">
   <rdf:RDF xmlns:rdf="http://www.w3.org/1999/02/22-rdf-syntax-ns#">
      <rdf:Description rdf:about=""/>
   </rdf:RDF>
</x:xmpmeta>
                                                                                                    
                                                                                                    
                                                                                                    
                                                                                                    
                                                                                                    
                                                                                                    
                                                                                                    
                                                                                                    
                                                                                                    
                                                                                                    
                                                                                                    
                                                                                                    
                                                                                                    
                                                                                                    
                                                                                                    
                                                                                                    
                                                                                                    
                                                                                                    
                                                                                                    
                                                                                                    
                           
<?xpacket end="w"?></metadata>
<defs>
    <style>
      .cls-1 {
        fill: #18cfab;
        fill-rule: evenodd;
      }
    </style>
  </defs>
  <path id="Forma_1" data-name="Forma 1" class="cls-1" d="M796.11,2014.21a1.633,1.633,0,0,0-1.032,1.3,1.612,1.612,0,0,0,.656,1.52l5.285,3.81,18.773-14.64-16.6,16.21,7.225,5.21a1.819,1.819,0,0,0,1.6.26,1.793,1.793,0,0,0,1.176-1.1l7.729-20.96a0.574,0.574,0,0,0-.139-0.61,0.587,0.587,0,0,0-.618-0.13Zm3.655,7.89,0.045,0.25,1.025,5.56a1.268,1.268,0,0,0,1.932.82,34.655,34.655,0,0,0,3.244-2.19Z" transform="translate(-795.063 -2005.06)"/>
</svg>
