<svg xmlns="http://www.w3.org/2000/svg" width="34" height="22" viewBox="0 0 34 22">
  <metadata><?xpacket begin="﻿" id="W5M0MpCehiHzreSzNTczkc9d"?>
<x:xmpmeta xmlns:x="adobe:ns:meta/" x:xmptk="Adobe XMP Core 5.6-c138 79.159824, 2016/09/14-01:09:01        ">
   <rdf:RDF xmlns:rdf="http://www.w3.org/1999/02/22-rdf-syntax-ns#">
      <rdf:Description rdf:about=""/>
   </rdf:RDF>
</x:xmpmeta>
                                                                                                    
                                                                                                    
                                                                                                    
                                                                                                    
                                                                                                    
                                                                                                    
                                                                                                    
                                                                                                    
                                                                                                    
                                                                                                    
                                                                                                    
                                                                                                    
                                                                                                    
                                                                                                    
                                                                                                    
                                                                                                    
                                                                                                    
                                                                                                    
                                                                                                    
                                                                                                    
                           
<?xpacket end="w"?></metadata>
<defs>
    <style>
      .cls-1 {
        fill: #18cfab;
        fill-rule: evenodd;
      }
    </style>
  </defs>
  <path id="Forma_1" data-name="Forma 1" class="cls-1" d="M828.952,1834.76a0.164,0.164,0,0,0-.13-0.06H795.178a0.167,0.167,0,0,0-.131.06,0.183,0.183,0,0,0-.04.14c0,0.03.513,3.1,4.451,3.1h25.084c3.938,0,4.446-3.07,4.451-3.1A0.18,0.18,0,0,0,828.952,1834.76Zm-14.422,2.16h-5.061v-1.14h5.061v1.14Zm-15.857-3.41h26.654a0.7,0.7,0,0,0,.7-0.69v-16.14a0.693,0.693,0,0,0-.7-0.68H798.673a0.692,0.692,0,0,0-.7.68v16.14A0.694,0.694,0,0,0,798.673,1833.51Zm1.745-15.1h23.164v12.69H800.418v-12.69Z" transform="translate(-795 -1816)"/>
</svg>
