<svg xmlns="http://www.w3.org/2000/svg" width="27" height="22" viewBox="0 0 27 22">
  <metadata><?xpacket begin="﻿" id="W5M0MpCehiHzreSzNTczkc9d"?>
<x:xmpmeta xmlns:x="adobe:ns:meta/" x:xmptk="Adobe XMP Core 5.6-c138 79.159824, 2016/09/14-01:09:01        ">
   <rdf:RDF xmlns:rdf="http://www.w3.org/1999/02/22-rdf-syntax-ns#">
      <rdf:Description rdf:about=""/>
   </rdf:RDF>
</x:xmpmeta>
                                                                                                    
                                                                                                    
                                                                                                    
                                                                                                    
                                                                                                    
                                                                                                    
                                                                                                    
                                                                                                    
                                                                                                    
                                                                                                    
                                                                                                    
                                                                                                    
                                                                                                    
                                                                                                    
                                                                                                    
                                                                                                    
                                                                                                    
                                                                                                    
                                                                                                    
                                                                                                    
                           
<?xpacket end="w"?></metadata>
<defs>
    <style>
      .cls-1 {
        fill: #18cfab;
        fill-rule: evenodd;
      }
    </style>
  </defs>
  <path id="Forma_1" data-name="Forma 1" class="cls-1" d="M1217.17,2019.01h-0.66a0.615,0.615,0,0,1-.61-0.62,0.476,0.476,0,0,1,.14-0.34,4.431,4.431,0,0,0,.93-1.42,0.314,0.314,0,0,0,.16.06,1.5,1.5,0,0,0,.8-1.38c0-.56-0.05-1.01-0.42-1.01a0.708,0.708,0,0,0-.14.01c-0.02-1.51-.4-3.41-2.7-3.41-2.4,0-2.68,1.89-2.71,3.41a0.34,0.34,0,0,0-.1-0.01c-0.37,0-.42.45-0.42,1.01a1.5,1.5,0,0,0,.8,1.38,0.2,0.2,0,0,0,.13-0.04,4.338,4.338,0,0,0,.93,1.4,0.476,0.476,0,0,1,.14.34,0.623,0.623,0,0,1-.62.62h-0.66a2.554,2.554,0,0,0-2.54,2.56v0.71a0.8,0.8,0,0,0,.8.81h8.49a0.8,0.8,0,0,0,.8-0.81v-0.71A2.548,2.548,0,0,0,1217.17,2019.01Zm7.62-7.03h-7.12a5.43,5.43,0,0,1,.41,1.72,0.97,0.97,0,0,1,.36.43h6.35a0.593,0.593,0,0,0,.59-0.6v-0.95A0.593,0.593,0,0,0,1224.79,2011.98Zm0,3.92h-6.2a2.1,2.1,0,0,1-1.16,1.49l-0.06.09v0.57h7.42a0.6,0.6,0,0,0,.59-0.6v-0.95A0.593,0.593,0,0,0,1224.79,2015.9Zm0,3.92h-4.84a3.279,3.279,0,0,1,.5,1.75v0.4h4.34a0.593,0.593,0,0,0,.59-0.6v-0.95A0.593,0.593,0,0,0,1224.79,2019.82Zm2.55-13.82h-19.68a3.672,3.672,0,0,0-3.66,3.68v14.63a3.675,3.675,0,0,0,3.66,3.69h19.68a3.675,3.675,0,0,0,3.66-3.69v-14.63A3.672,3.672,0,0,0,1227.34,2006Zm1.93,18.31a1.936,1.936,0,0,1-1.93,1.95h-19.68a1.936,1.936,0,0,1-1.93-1.95v-14.63a1.933,1.933,0,0,1,1.93-1.94h19.68a1.933,1.933,0,0,1,1.93,1.94v14.63Z" transform="translate(-1204 -2006)"/>
</svg>
