<svg xmlns="http://www.w3.org/2000/svg" width="23.78" height="24" viewBox="0 0 23.78 24">
  <metadata><?xpacket begin="﻿" id="W5M0MpCehiHzreSzNTczkc9d"?>
<x:xmpmeta xmlns:x="adobe:ns:meta/" x:xmptk="Adobe XMP Core 5.6-c138 79.159824, 2016/09/14-01:09:01        ">
   <rdf:RDF xmlns:rdf="http://www.w3.org/1999/02/22-rdf-syntax-ns#">
      <rdf:Description rdf:about=""/>
   </rdf:RDF>
</x:xmpmeta>
                                                                                                    
                                                                                                    
                                                                                                    
                                                                                                    
                                                                                                    
                                                                                                    
                                                                                                    
                                                                                                    
                                                                                                    
                                                                                                    
                                                                                                    
                                                                                                    
                                                                                                    
                                                                                                    
                                                                                                    
                                                                                                    
                                                                                                    
                                                                                                    
                                                                                                    
                                                                                                    
                           
<?xpacket end="w"?></metadata>
<defs>
    <style>
      .cls-1 {
        fill: #18cfab;
        fill-rule: evenodd;
      }
    </style>
  </defs>
  <path id="Forma_1" data-name="Forma 1" class="cls-1" d="M1204.87,1835.16a2.263,2.263,0,0,0,0,3.18,2.227,2.227,0,0,0,1.58.66,2.188,2.188,0,0,0,1.57-.66l7.31-7.38-3.15-3.18Zm18.28-13.68,3.18-1.66,1.67-3.25-1.55-1.57-3.23,1.68-1.65,3.21-3.87,3.92,1.57,1.59Zm0.7,8.53-0.31-.03a4.441,4.441,0,0,0-1.54.3l-9.14-9.23a4.5,4.5,0,0,0,.29-1.56l-0.03-.3a4.459,4.459,0,0,0-4.42-4.19,4.365,4.365,0,0,0-1.91.45l2.96,2.98a1.606,1.606,0,0,1,.33.54,1.522,1.522,0,0,1-.33,1.58,1.445,1.445,0,0,1-1.05.44,1.548,1.548,0,0,1-.52-0.1,1.375,1.375,0,0,1-.53-0.34l-2.96-2.98a4.409,4.409,0,0,0-.45,1.92,4.473,4.473,0,0,0,4.16,4.47l0.3,0.03a4.432,4.432,0,0,0,1.54-.29l9.14,9.22a4.5,4.5,0,0,0-.29,1.56l0.03,0.3a4.459,4.459,0,0,0,4.42,4.19,4.358,4.358,0,0,0,1.91-.44l-2.95-2.99a1.41,1.41,0,0,1-.34-0.54,1.506,1.506,0,0,1,.34-1.58,1.463,1.463,0,0,1,1.04-.44,1.548,1.548,0,0,1,.52.1,1.489,1.489,0,0,1,.54.34l2.95,2.99A4.459,4.459,0,0,0,1223.85,1830.01Z" transform="translate(-1204.22 -1815)"/>
</svg>
