<svg xmlns="http://www.w3.org/2000/svg" width="22" height="30" viewBox="0 0 22 30">
  <metadata><?xpacket begin="﻿" id="W5M0MpCehiHzreSzNTczkc9d"?>
<x:xmpmeta xmlns:x="adobe:ns:meta/" x:xmptk="Adobe XMP Core 5.6-c138 79.159824, 2016/09/14-01:09:01        ">
   <rdf:RDF xmlns:rdf="http://www.w3.org/1999/02/22-rdf-syntax-ns#">
      <rdf:Description rdf:about=""/>
   </rdf:RDF>
</x:xmpmeta>
                                                                                                    
                                                                                                    
                                                                                                    
                                                                                                    
                                                                                                    
                                                                                                    
                                                                                                    
                                                                                                    
                                                                                                    
                                                                                                    
                                                                                                    
                                                                                                    
                                                                                                    
                                                                                                    
                                                                                                    
                                                                                                    
                                                                                                    
                                                                                                    
                                                                                                    
                                                                                                    
                           
<?xpacket end="w"?></metadata>
<defs>
    <style>
      .cls-1 {
        fill: #18cfab;
        fill-rule: evenodd;
      }
    </style>
  </defs>
  <path id="Forma_1" data-name="Forma 1" class="cls-1" d="M410.274,1814.57h0.863a0.864,0.864,0,0,0,.863-0.86v-0.85a0.858,0.858,0,0,0-.863-0.86H390.863a0.858,0.858,0,0,0-.863.86v0.85a0.864,0.864,0,0,0,.863.86h0.862c0,7.63,6.121,7.93,6.471,12.43-0.35,4.5-6.471,4.8-6.471,12.43h-0.862a0.856,0.856,0,0,0-.863.85v0.86a0.864,0.864,0,0,0,.863.86h20.274a0.864,0.864,0,0,0,.863-0.86v-0.86a0.856,0.856,0,0,0-.863-0.85h-0.863c0-7.63-6.12-7.93-6.47-12.43C404.154,1822.5,410.274,1822.2,410.274,1814.57Zm-2.615,24.14a0.433,0.433,0,0,1-.355.68H394.629a0.432,0.432,0,0,1-.373-0.65,24.017,24.017,0,0,1,6.455-6.92,0.45,0.45,0,0,1,.559.03A41.12,41.12,0,0,1,407.659,1838.71Zm-6.693-13.8-4.6-4.56a13.518,13.518,0,0,0,4.193.94c1.881,0,3.487-1.33,4.9-1.33S400.966,1824.91,400.966,1824.91Z" transform="translate(-390 -1812)"/>
</svg>
